<?xml version="1.0" encoding="UTF-8" standalone="no"?>
<!-- Created with Inkscape (http://www.inkscape.org/) -->

<svg
   version="1.1"
   id="svg2"
   width="532"
   height="417.33334"
   viewBox="0 0 532 417.33334"
   sodipodi:docname="K13-MESTER_logo1.eps"
   xmlns:inkscape="http://www.inkscape.org/namespaces/inkscape"
   xmlns:sodipodi="http://sodipodi.sourceforge.net/DTD/sodipodi-0.dtd"
   xmlns="http://www.w3.org/2000/svg"
   xmlns:svg="http://www.w3.org/2000/svg">
  <defs
     id="defs6" />
  <sodipodi:namedview
     id="namedview4"
     pagecolor="#ffffff"
     bordercolor="#000000"
     borderopacity="0.25"
     inkscape:showpageshadow="2"
     inkscape:pageopacity="0.0"
     inkscape:pagecheckerboard="0"
     inkscape:deskcolor="#d1d1d1" />
  <g
     id="g8"
     inkscape:groupmode="layer"
     inkscape:label="ink_ext_XXXXXX"
     transform="matrix(1.3333333,0,0,-1.3333333,0,417.33333)">
    <g
       id="g10"
       transform="scale(0.1)">
      <path
         d="M 10.7383,3125.51 H 3979.24 V 7.39844 H 10.7383 Z"
         style="fill:none;stroke:#231f20;stroke-width:5.6693;stroke-linecap:butt;stroke-linejoin:miter;stroke-miterlimit:2.6131;stroke-dasharray:none;stroke-opacity:1"
         id="path12" />
      <path
         d="M 322.555,743.16 V 149.133 H 152.477 c 0,932.077 0,1851.957 0,2834.647 H 322.555 V 961.086 L 1172.94,1641.39 V 1423.48 L 897.926,1203.46 1618.97,251.207 1483.45,149.555 765.57,1097.58 Z m 1474.015,1397.13 1054.35,843.49 h 136.2 V 2874.82 L 1796.57,1922.38 v 217.91"
         style="fill:#231f20;fill-opacity:1;fill-rule:nonzero;stroke:none"
         id="path14" />
      <path
         d="M 776.094,2983.77 H 2193.41 v -481.89 h -226.77 v -168.83 l -170.07,-136.07 v 474.97 h 226.77 v 141.74 H 946.172 v -141.74 h 226.768 v -973.86 l -170.08,-136.07 v 939.86 H 776.094 v 481.89"
         style="fill:#00adef;fill-opacity:1;fill-rule:nonzero;stroke:none"
         id="path16" />
      <path
         d="m 1791.97,883.059 h -136.92 v 164.281 l 177.99,178.96 h 138.65 V 149.133 h -181.17 z m 741.65,-111.758 h 255.5 l 36.91,26.484 v 233.425 l -34.53,33.56 h -400.21 l -32.39,-32.59 V 883.059 h -165.27 v 220.981 l 121.3,122.26 h 535.5 l 136.9,-137.96 V 737.98 l -44.26,-50.265 44.26,-50.27 V 287.094 l -136.9,-137.961 h -535.5 l -121.3,122.258 v 220.98 H 2358.9 V 343.254 l 32.39,-32.594 h 400.21 l 34.53,33.559 v 233.426 l -36.91,26.48 h -255.5 v 167.176"
         style="fill:#00adef;fill-opacity:1;fill-rule:evenodd;stroke:none"
         id="path18" />
      <path
         d="m 3369.73,2586.93 v 396.85 h 83.66 l 164.91,-234.93 164.22,234.93 h 79.88 v -396.85 h -84.43 v 245.13 c 0,4.74 0.24,10.77 0.83,18.07 0.58,7.3 1.4,15.37 2.22,24.34 -4.57,-10.25 -8.59,-18.7 -11.96,-25.24 -3.42,-6.65 -6.4,-12.25 -9.26,-16.4 L 3623.47,2634.6 h -16.88 l -136.69,199 c -5.15,7.51 -9.35,14.62 -12.89,21.27 -3.49,6.54 -6.45,13.07 -8.8,19.22 0.71,-8.2 1.31,-15.77 1.65,-22.43 0.35,-6.78 0.46,-13.33 0.46,-19.6 v -245.13 z m 58.78,-489.89 v 396.85 h 371.71 v -67.52 h -287.19 v -88.68 h 167.63 v -67.53 h -167.63 v -98.41 h 290.59 v -74.71 z m 311,-158.25 h -237.62 v -85.21 h 226.24 c 35.53,0 59.57,-6.67 71.98,-19.86 12.55,-13.33 18.76,-37.93 18.76,-74.06 v -54.46 c 0,-36.01 -6.21,-60.62 -18.76,-73.94 -12.41,-13.19 -36.46,-19.87 -71.98,-19.87 H 3504 c -35.52,0 -59.56,6.68 -71.98,19.87 -12.54,13.32 -18.76,37.93 -18.76,73.94 v 10.89 l 74.56,16.91 v -46.89 h 256.49 v 90.46 h -226.25 c -35.27,0 -59.16,6.62 -71.51,19.86 -12.38,13.28 -18.52,37.93 -18.52,74.07 v 43.82 c 0,36.14 6.14,60.79 18.52,74.07 12.35,13.24 36.23,19.86 71.51,19.86 h 205.97 c 34.12,0 57.69,-6.41 70.58,-19.1 13.01,-12.81 19.45,-35.5 19.45,-68.04 v -8.2 l -74.55,-19.22 z m -81.54,-487.21 v -325.87 h -84.51 v 325.87 h -166.59 v 70.99 h 418.4 v -70.99 z M 3428.51,636.621 v 396.849 h 371.71 v -67.529 h -287.19 v -88.675 h 167.63 v -67.528 h -167.63 v -98.414 h 290.59 V 636.621 Z M 3701.64,477.297 H 3511.62 V 366.84 h 190.02 c 14.66,0 24.63,2.312 30.02,6.922 5.38,4.613 8.09,12.812 8.09,24.601 v 47.797 c 0,11.535 -2.7,19.606 -8.09,24.219 -5.39,4.613 -15.36,6.918 -30.02,6.918 z M 3428.5,149.133 V 545.98 h 310.54 c 28.84,0 49.74,-6 62.72,-18.195 12.92,-12.144 19.34,-31.781 19.34,-58.691 v -93.281 c 0,-26.778 -6.46,-46.258 -19.34,-58.434 -13.02,-12.293 -33.89,-18.449 -62.72,-18.449 h -47.36 L 3859.2,149.133 h -121.22 l -146.3,149.797 h -80.06 V 149.133 h -83.12"
         style="fill:#231f20;fill-opacity:1;fill-rule:evenodd;stroke:none"
         id="path20" />
    </g>
  </g>
</svg>
